<svg viewBox="0 0 688 688" version="1.1" xmlns="http://www.w3.org/2000/svg" xmlns:xlink="http://www.w3.org/1999/xlink">
  <title>Grupo 4</title>
  <g id="Página-1" stroke="none" stroke-width="1" fill="none" fill-rule="evenodd">
    <g id="Group-209" transform="translate(-37, -23)">
      <g id="Grupo-4" transform="translate(381.085, 366.6559) rotate(-360) translate(-381.085, -366.6559) translate(37.4291, 23)">
        <g id="Grupo" transform="translate(0, 0)">
          <g id="Grupo-3" transform="translate(118.5709, 0)" fill="#EE5135" fill-opacity="0.5">
            <g id="Trazado-2" transform="translate(0, -0)">
              <path d="M22,34 L0,122 L88.2969111,144.311804 L69.4703407,112.660922 C115.477526,80.2203075 167.820746,64 226.5,64 C273.718843,65.3143218 315.921075,75.5026791 353.106698,94.565072 L391.169912,42.2320658 C338.300336,14.0773553 283.410366,0 226.5,0 C159.173449,0 95.6668017,19.1989901 35.9800566,57.5969702 L22,34 Z" id="Trazado"></path>
            </g>
            <g id="Trazado-2" transform="translate(256.585, 615.1559) scale(-1, -1) translate(-256.585, -615.1559) translate(61, 543)">
              <path d="M22,34 L0,122 L88.2969111,144.311804 L69.4703407,112.660922 C115.477526,80.2203075 167.820746,64 226.5,64 C273.718843,65.3143218 315.921075,75.5026791 353.106698,94.565072 L391.169912,42.2320658 C338.300336,14.0773553 283.410366,0 226.5,0 C159.173449,0 95.6668017,19.1989901 35.9800566,57.5969702 L22,34 Z" id="Trazado"></path>
            </g>
          </g>
          <g id="Grupo-3" transform="translate(343.6559, 344.6559) rotate(90) translate(-343.6559, -344.6559) translate(117.5709, 1)">
            <g id="Trazado-2" transform="translate(0, -0)" fill="#162944" fill-opacity="0.5">
              <path d="M22,34 L0,122 L88.2969111,144.311804 L69.4703407,112.660922 C115.477526,80.2203075 167.820746,64 226.5,64 C273.718843,65.3143218 315.921075,75.5026791 353.106698,94.565072 L391.169912,42.2320658 C338.300336,14.0773553 283.410366,0 226.5,0 C159.173449,0 95.6668017,19.1989901 35.9800566,57.5969702 L22,34 Z" id="Trazado"></path>
            </g>
            <g id="Trazado-2" transform="translate(256.585, 615.1559) scale(-1, -1) translate(-256.585, -615.1559) translate(61, 543)" fill="#EE5135" fill-opacity="0.5">
              <path d="M22,34 L0,122 L88.2969111,144.311804 L69.4703407,112.660922 C115.477526,80.2203075 167.820746,64 226.5,64 C273.718843,65.3143218 315.921075,75.5026791 353.106698,94.565072 L391.169912,42.2320658 C338.300336,14.0773553 283.410366,0 226.5,0 C159.173449,0 95.6668017,19.1989901 35.9800566,57.5969702 L22,34 Z" id="Trazado"></path>
            </g>
          </g>
        </g>
      </g>
    </g>
  </g>
</svg>